<?xml version="1.0" encoding="utf-8"?>
<svg viewBox="11.3821 158.3856 467.8858 91.1669" xmlns="http://www.w3.org/2000/svg">
  <g transform="matrix(1, 0, 0, 1, 113.9469680786133, -89.53990173339844)">
    <title>Banner</title>
    <rect x="147.913" y="260.542" width="217.408" height="69.881" style="stroke: rgb(239, 232, 212); stroke-width: 7px; fill: rgb(73, 53, 51); stroke-linejoin: round;"/>
    <text style="fill: rgb(237, 232, 213); font-family: 'MV Boli'; font-size: 19px; font-weight: 700; text-anchor: middle; white-space: pre;" transform="matrix(2.320757, 0, 0, 1.634889, -144.968582, -185.992813)"><tspan x="170.097" y="291.231">GE</tspan><tspan x="170.097" dy="1em">​</tspan><tspan>TRACKER</tspan></text>
  </g>
  <g transform="matrix(1, 0, 0, 1, -119.2716293334961, -11.226639747619629)">
    <title>OSRS</title>
    <path style="fill: rgb(46, 46, 46); stroke-width: 3px; stroke: rgb(240, 237, 218);" d="M 348.524 171.985 C 350.928 171.85 353.362 171.746 355.384 171.985 C 357.137 172.193 358.494 172.555 360.044 173.15 C 361.687 173.781 363.492 174.697 364.962 175.739 C 366.396 176.755 367.377 177.651 368.781 179.299 C 370.695 181.547 373.83 186.043 375.253 188.618 C 376.291 190.498 376.692 191.836 377.194 193.407 C 377.67 194.897 377.897 195.56 378.23 197.808 C 378.832 201.884 379.662 212.107 379.912 217.742 C 380.114 222.28 380.194 226.224 379.912 229.391 C 379.694 231.851 379.347 233.569 378.747 235.475 C 378.168 237.315 377.353 238.817 376.417 240.652 C 375.367 242.714 374.03 245.388 372.664 247.254 C 371.44 248.925 370.223 250.146 368.716 251.46 C 367.118 252.854 365.145 254.339 363.28 255.343 C 361.515 256.294 359.439 256.959 357.843 257.414 C 356.533 257.789 355.942 257.931 354.348 258.062 C 351.904 258.262 347.017 258.465 343.993 258.062 C 341.389 257.714 339.174 256.905 337.133 256.12 C 335.294 255.412 333.981 254.818 332.214 253.661 C 330.053 252.245 327.134 250.154 325.16 247.901 C 323.185 245.646 321.684 242.601 320.371 240.135 C 319.193 237.922 318.306 235.915 317.523 233.792 C 316.762 231.729 316.213 230.102 315.711 227.579 C 315.069 224.35 314.529 219.758 314.287 215.671 C 314.037 211.44 313.962 206.068 314.287 202.598 C 314.533 199.978 314.931 198.357 315.582 196.255 C 316.254 194.084 317.316 191.615 318.3 189.783 C 319.148 188.204 319.896 187.158 321.018 185.771 C 322.308 184.176 323.984 182.345 325.743 180.787 C 327.572 179.166 330.009 177.403 331.826 176.257 C 333.303 175.326 334.428 174.744 335.839 174.186 C 337.273 173.618 338.562 173.239 340.369 172.892 C 342.625 172.458 345.941 172.131 348.524 171.985 Z"/>
    <path style="fill: rgb(46, 46, 46); stroke-width: 3px; stroke: rgb(241, 237, 217);" d="M 284.821 169.712 C 286.526 169.583 288.772 169.536 290.904 169.841 C 293.239 170.175 296.335 171.033 298.282 171.783 C 299.803 172.368 300.783 172.925 301.907 173.724 C 303.051 174.538 304.585 175.196 305.078 175.73 C 305.296 175.966 307.698 178.245 308.767 179.031 C 309.881 179.851 310.919 180.632 311.938 181.943 C 313.205 183.574 314.432 185.747 315.562 188.415 C 316.978 191.756 318.623 197.655 319.446 200.841 C 320.024 203.083 320.257 203.968 320.481 206.148 C 320.776 209.017 321.005 212.929 320.74 216.892 C 320.433 221.473 319.181 228.472 318.41 232.165 C 317.89 234.657 317.697 235.641 316.857 237.731 C 315.807 240.342 313.926 244.107 312.197 246.662 C 310.636 248.969 308.746 251.09 307.084 252.552 C 305.718 253.753 304.565 254.421 303.072 255.141 C 301.479 255.908 299.433 256.515 297.765 256.953 C 296.259 257.347 295.38 257.552 293.493 257.729 C 290.731 257.99 285.284 258.233 282.232 257.988 C 279.87 257.798 278.303 257.383 276.407 256.823 C 274.506 256.262 272.634 255.556 270.842 254.623 C 269.006 253.667 267.115 252.369 265.535 251.128 C 264.053 249.965 263.022 248.995 261.587 247.439 C 259.789 245.491 256.997 242.279 255.633 240.061 C 254.558 238.315 254.039 236.82 253.562 235.272 C 253.123 233.85 252.926 232.719 252.785 231.13 C 252.616 229.228 252.057 227.407 251.879 225.564 C 251.736 224.082 252.154 222.297 252.008 220.775 C 251.82 218.81 251.678 215.871 252.008 213.526 C 252.334 211.213 252.757 209.818 253.95 206.795 C 255.865 201.943 261.509 190.712 263.917 186.215 C 265.373 183.495 266.023 182.289 267.282 180.649 C 268.475 179.096 269.728 177.906 271.23 176.572 C 272.865 175.119 275.003 173.361 276.796 172.3 C 278.353 171.379 279.913 170.792 281.326 170.359 C 282.566 169.978 283.446 169.815 284.821 169.712 Z"/>
    <path style="stroke: rgb(242, 237, 216); fill: rgb(46, 46, 46); stroke-width: 3px;" d="M 236.703 171.797 C 238.608 171.744 240.323 171.617 241.88 171.797 C 243.265 171.957 244.486 172.275 245.634 172.703 C 246.719 173.108 247.604 173.538 248.611 174.256 C 249.778 175.088 251.073 176.134 252.171 177.557 C 253.458 179.226 254.938 181.989 255.665 183.899 C 256.259 185.459 256.423 186.767 256.571 188.171 C 256.715 189.527 256.637 191.117 256.571 192.183 C 256.522 192.983 256.587 196.537 256.442 198.267 C 256.241 200.661 255.234 208.426 255.448 209.869 C 255.729 211.763 255.574 217.261 255.837 219.263 C 256.051 220.889 256.778 225.94 256.96 228.037 C 257.163 230.388 258.044 233.203 258.254 235.674 C 258.455 238.028 258.368 240.56 258.254 242.535 C 258.16 244.173 258.058 245.409 257.736 246.806 C 257.413 248.213 256.901 249.706 256.313 250.948 C 255.764 252.104 255.132 253.098 254.371 254.054 C 253.603 255.02 252.668 255.936 251.718 256.708 C 250.788 257.463 249.854 258.101 248.741 258.65 C 247.543 259.239 246.365 259.778 244.728 260.073 C 242.66 260.446 240.044 260.534 237.091 260.332 C 233.441 260.082 228.252 259.08 224.277 258.261 C 220.618 257.507 217.213 256.876 214.051 255.672 C 211.02 254.519 207.964 252.87 205.638 251.272 C 203.615 249.882 202.113 248.544 200.654 246.806 C 199.142 245.003 197.866 242.917 196.771 240.593 C 195.589 238.083 194.629 235.18 193.924 232.179 C 193.174 228.992 192.757 225.343 192.5 221.954 C 192.246 218.612 192.191 214.628 192.37 211.987 C 192.504 210.007 192.697 208.747 193.147 207.198 C 193.6 205.64 194.328 204.035 195.088 202.668 C 195.807 201.376 196.602 200.77 197.548 199.173 C 198.922 196.851 200.729 192.099 202.466 189.465 C 203.929 187.248 206 185.153 207.062 184.093 C 207.668 183.487 207.795 183.582 208.421 182.993 C 209.513 181.965 211.821 179.155 213.275 177.88 C 214.41 176.884 215.158 176.336 216.381 175.68 C 217.776 174.932 219.373 174.288 221.3 173.738 C 223.607 173.08 226.823 172.507 229.454 172.185 C 231.948 171.88 234.522 171.857 236.703 171.797 Z"/>
    <path d="M 161.763 170.877 C 164.852 170.541 169.413 170.596 172.506 170.877 C 175.091 171.112 176.866 171.487 179.237 172.172 C 181.883 172.935 185.429 174.111 187.651 175.408 C 189.499 176.486 190.48 177.383 191.987 179.097 C 193.954 181.334 196.798 185.564 198.2 188.287 C 199.309 190.442 199.726 191.924 200.271 194.111 C 200.89 196.598 201.332 199.343 201.565 202.525 C 201.84 206.272 201.634 211.203 201.565 215.339 C 201.499 219.304 201.476 224.204 201.177 226.859 C 200.987 228.545 200.58 236.394 200.4 238.379 C 200.274 239.78 200.172 240.217 199.753 241.615 C 199.127 243.705 197.915 247.66 196.517 250.028 C 195.249 252.178 193.588 254.003 191.922 255.4 C 190.395 256.68 188.846 257.468 187.003 258.248 C 185 259.095 181.852 259.813 180.273 260.189 C 179.273 260.427 179.205 260.494 178.072 260.578 C 175.981 260.733 171.046 260.94 167.717 260.578 C 164.495 260.227 160.693 259.191 158.398 258.507 C 156.794 258.029 156.209 257.748 154.773 257.083 C 152.882 256.206 149.793 254.759 147.913 253.459 C 146.297 252.341 145.337 251.421 143.965 249.899 C 142.281 248.031 140.203 245.521 138.658 242.78 C 136.964 239.772 135.591 236.47 134.387 232.425 C 132.954 227.613 131.571 220.095 131.022 215.469 C 130.602 211.937 130.58 209.38 130.763 206.667 C 130.929 204.197 131.404 201.708 131.928 199.807 C 132.355 198.256 132.69 197.561 133.481 195.923 C 134.63 193.542 136.963 188.999 138.658 186.604 C 139.993 184.718 142.137 182.766 142.606 182.268 C 142.744 182.121 142.666 182.211 142.8 182.074 C 143.22 181.643 144.567 179.931 146.101 178.643 C 148.237 176.852 152.211 173.711 155.032 172.43 C 157.384 171.363 159.174 171.159 161.763 170.877 Z" style="fill: rgb(46, 46, 46); stroke-width: 3px; stroke: rgb(241, 236, 215);"/>
    <text style="fill: rgb(240, 237, 218); font-family: 'MV Boli'; font-size: 3.70294px; font-weight: 700; line-height: 5.92471px; text-transform: uppercase; white-space: pre;" transform="matrix(18.498074, 0, 0, 12.962667, -2526.31543, -2564.909668)" x="143.974" y="215.763">O</text>
    <text style="fill: rgb(240, 237, 218); font-family: 'MV Boli'; font-size: 48px; font-weight: 700; text-transform: uppercase; white-space: pre;" x="209.739" y="232.363">S</text>
    <text style="fill: rgb(240, 237, 218); font-family: 'MV Boli'; font-size: 48px; font-weight: 700; white-space: pre;" x="270.79" y="230.241">R</text>
    <text style="fill: rgb(239, 237, 219); font-family: 'MV Boli'; font-size: 48px; font-weight: 700; white-space: pre;" x="329.235" y="231.664">S</text>
  </g>
</svg>